<svg xmlns="http://www.w3.org/2000/svg" width="150" height="38" viewBox="0 0 150 38">
  <metadata><?xpacket begin="﻿" id="W5M0MpCehiHzreSzNTczkc9d"?>
<x:xmpmeta xmlns:x="adobe:ns:meta/" x:xmptk="Adobe XMP Core 5.6-c142 79.160924, 2017/07/13-01:06:39        ">
   <rdf:RDF xmlns:rdf="http://www.w3.org/1999/02/22-rdf-syntax-ns#">
      <rdf:Description rdf:about=""/>
   </rdf:RDF>
</x:xmpmeta>
                                                                                                    
                                                                                                    
                                                                                                    
                                                                                                    
                                                                                                    
                                                                                                    
                                                                                                    
                                                                                                    
                                                                                                    
                                                                                                    
                                                                                                    
                                                                                                    
                                                                                                    
                                                                                                    
                                                                                                    
                                                                                                    
                                                                                                    
                                                                                                    
                                                                                                    
                                                                                                    
                           
<?xpacket end="w"?></metadata>
<defs>
    <style>
      .cls-1 {
        fill: #4c7cf3;
        fill-rule: evenodd;
      }
    </style>
  </defs>
  <path id="booster" class="cls-1" d="M34.076,7.934v14.5a8.043,8.043,0,0,0,.668,3.255,8.491,8.491,0,0,0,1.827,2.674,8.613,8.613,0,0,0,2.709,1.8,8.59,8.59,0,0,0,6.6,0,8.492,8.492,0,0,0,4.509-4.477,8.3,8.3,0,0,0,0-6.527,8.462,8.462,0,0,0-1.818-2.665A8.615,8.615,0,0,0,45.882,14.7a8.6,8.6,0,0,0-6.246-.141,8.919,8.919,0,0,0-2.495,1.434V7.934m0.428,12.412a5.515,5.515,0,0,1,1.158-1.706A5.269,5.269,0,0,1,40.456,17.5a5.489,5.489,0,0,1,2.121-.413A5.405,5.405,0,0,1,44.7,17.5a5.326,5.326,0,0,1,1.711,1.144,5.4,5.4,0,0,1,1.15,1.706,5.354,5.354,0,0,1,0,4.152,5.393,5.393,0,0,1-1.15,1.707A5.566,5.566,0,0,1,44.7,27.365a5.208,5.208,0,0,1-2.121.431,5.288,5.288,0,0,1-2.121-.431A5.445,5.445,0,0,1,37.568,24.5,5.252,5.252,0,0,1,37.568,20.346Zm18.748,0a5.336,5.336,0,0,1,1.167-1.7A5.6,5.6,0,0,1,59.212,17.5a5.515,5.515,0,0,1,4.233,0,5.523,5.523,0,0,1,1.711,1.143,5.292,5.292,0,0,1,1.149,1.7,5.354,5.354,0,0,1,0,4.152A5.392,5.392,0,0,1,65.156,26.2a5.566,5.566,0,0,1-1.711,1.161,5.208,5.208,0,0,1-2.121.431,5.288,5.288,0,0,1-2.121-.431A5.445,5.445,0,0,1,56.316,24.5,5.252,5.252,0,0,1,56.316,20.346Zm-2.825,5.348a8.52,8.52,0,0,0,1.827,2.665,8.614,8.614,0,0,0,2.709,1.8,8.591,8.591,0,0,0,6.6,0,8.517,8.517,0,0,0,4.509-4.469,8.324,8.324,0,0,0,0-6.536,8.462,8.462,0,0,0-1.818-2.665A8.616,8.616,0,0,0,64.63,14.7a8.591,8.591,0,0,0-6.6,0,8.693,8.693,0,0,0-2.709,1.794,8.388,8.388,0,0,0-1.827,2.665A8.324,8.324,0,0,0,53.492,25.694Zm21.572-5.348a5.339,5.339,0,0,1,1.167-1.7A5.6,5.6,0,0,1,77.96,17.5a5.515,5.515,0,0,1,4.232,0A5.523,5.523,0,0,1,83.9,18.648a5.294,5.294,0,0,1,1.15,1.7,5.354,5.354,0,0,1,0,4.152A5.393,5.393,0,0,1,83.9,26.2a5.566,5.566,0,0,1-1.711,1.161,5.208,5.208,0,0,1-2.121.431,5.288,5.288,0,0,1-2.121-.431A5.445,5.445,0,0,1,75.064,24.5,5.252,5.252,0,0,1,75.064,20.346Zm-2.825,5.348a8.518,8.518,0,0,0,1.827,2.665,8.613,8.613,0,0,0,2.709,1.8,8.59,8.59,0,0,0,6.6,0,8.517,8.517,0,0,0,4.509-4.469,8.324,8.324,0,0,0,0-6.536,8.462,8.462,0,0,0-1.818-2.665A8.615,8.615,0,0,0,83.377,14.7a8.59,8.59,0,0,0-6.6,0,8.693,8.693,0,0,0-2.709,1.794,8.387,8.387,0,0,0-1.827,2.665A8.324,8.324,0,0,0,72.239,25.694Zm27.253-7.826a5.3,5.3,0,0,0-.994-0.592,4.3,4.3,0,0,0-1.746-.317,6.377,6.377,0,0,0-1.15.1,2.855,2.855,0,0,0-.909.317,1.774,1.774,0,0,0-.606.554,1.424,1.424,0,0,0-.223.809,1.175,1.175,0,0,0,.249.765,2.174,2.174,0,0,0,.677.537,5.94,5.94,0,0,0,1.016.413l1.265,0.4q1.087,0.334,2.085.748a7.55,7.55,0,0,1,1.747.994,4.48,4.48,0,0,1,1.194,1.39,3.917,3.917,0,0,1,.445,1.918,4.274,4.274,0,0,1-.454,1.944,4.838,4.838,0,0,1-1.248,1.566,5.972,5.972,0,0,1-1.88,1.038,7.058,7.058,0,0,1-2.335.378,10.377,10.377,0,0,1-1.782-.158,7.449,7.449,0,0,1-1.729-.519,6.448,6.448,0,0,1-1.506-.924,4.275,4.275,0,0,1-1.1-1.355l2.566-1.583A3.553,3.553,0,0,0,94.5,27.444a4.742,4.742,0,0,0,2.112.457,4.047,4.047,0,0,0,1.069-.141,3.171,3.171,0,0,0,.918-0.4,2.123,2.123,0,0,0,.633-0.625,1.481,1.481,0,0,0,.232-0.818,1.2,1.2,0,0,0-.4-0.871,4,4,0,0,0-1.007-.7,10.257,10.257,0,0,0-1.328-.554q-0.722-.246-1.346-0.44-0.784-.3-1.6-0.669a6.867,6.867,0,0,1-1.488-.906A4.364,4.364,0,0,1,91.2,20.487a3.6,3.6,0,0,1-.419-1.786,4.161,4.161,0,0,1,.454-1.97,4.441,4.441,0,0,1,1.23-1.46,5.617,5.617,0,0,1,1.818-.915,7.656,7.656,0,0,1,2.237-.317,9.837,9.837,0,0,1,1.541.123,7.048,7.048,0,0,1,1.47.4,5.119,5.119,0,0,1,1.248.695,3.149,3.149,0,0,1,.873,1.02m7.021-6.808V14.25h6.986v2.516h-6.986v5.806a4.975,4.975,0,0,0,.428,2.049,5.178,5.178,0,0,0,1.167,1.663A5.505,5.505,0,0,0,112,27.392a5.565,5.565,0,0,0,2.13.4,5.789,5.789,0,0,0,1.871-.29,4.827,4.827,0,0,0,1.622-.959l2,2.217A7.319,7.319,0,0,1,117.13,30.3a8.935,8.935,0,0,1-6.327-.123,8.466,8.466,0,0,1-2.709-1.759,8.3,8.3,0,0,1-1.817-2.63,7.956,7.956,0,0,1-.669-3.255V9.465m28.621,16.379a7.79,7.79,0,0,1-2.112,1.583,5.7,5.7,0,0,1-2.076.369,5.328,5.328,0,0,1-1.791-.3,5.237,5.237,0,0,1-1.515-.827,5.158,5.158,0,0,1-1.141-1.258,4.642,4.642,0,0,1-.65-1.61h12.118a1.509,1.509,0,0,0,1.1-.4,1.381,1.381,0,0,0,.419-1.038,8.02,8.02,0,0,0-.7-3.246,8.557,8.557,0,0,0-1.844-2.648,8.7,8.7,0,0,0-2.7-1.777,8.644,8.644,0,0,0-6.6.009,8.687,8.687,0,0,0-2.709,1.794,8.383,8.383,0,0,0-1.826,2.665,8.337,8.337,0,0,0,0,6.544,8.385,8.385,0,0,0,1.826,2.665,8.689,8.689,0,0,0,2.709,1.794,8.381,8.381,0,0,0,3.315.66,9.5,9.5,0,0,0,1.853-.167,8.49,8.49,0,0,0,1.533-.449,6.246,6.246,0,0,0,1.247-.668,18.751,18.751,0,0,0,1.515-1.337m-11.334-6.931a4.928,4.928,0,0,1,.615-1.68,4.829,4.829,0,0,1,1.149-1.32A5.485,5.485,0,0,1,128.2,17.4a5.577,5.577,0,0,1,1.9-.317A5.8,5.8,0,0,1,132,17.39a5.414,5.414,0,0,1,1.595.862,5.032,5.032,0,0,1,1.176,1.319,4.723,4.723,0,0,1,.633,1.7h-10.55Zm16.217,9.412V23.029a8.423,8.423,0,0,1,.695-3.4,8.915,8.915,0,0,1,4.714-4.68,8.574,8.574,0,0,1,3.43-.695H150v3.044h-0.089a5.612,5.612,0,0,0-2.227.449,5.8,5.8,0,0,0-3.083,3.043,5.463,5.463,0,0,0-.464,2.243v7.653"/>
  <path class="cls-1" d="M0.767,28.576A8.979,8.979,0,0,1,4.12,17.436c0-6.279,2.168-12.76,6.312-17.215a0.648,0.648,0,0,1,.987,0c4.147,4.457,6.32,10.94,6.42,17.118,3.554,2.634,5.134,7.091,3.359,11.142a9.9,9.9,0,0,0-4.048-4.559,15.94,15.94,0,0,1-.69,2.329,0.659,0.659,0,0,1-.691.506l-9.87,0a0.631,0.631,0,0,1-.494-0.507,9.325,9.325,0,0,1-.593-2.228A9.882,9.882,0,0,0,.767,28.576ZM10.93,21.658a2.733,2.733,0,0,0,2.763-2.835,2.764,2.764,0,1,0-5.527,0A2.736,2.736,0,0,0,10.93,21.658ZM5.7,34.249V30a1.382,1.382,0,1,1,2.764,0v4.254A1.382,1.382,0,1,1,5.7,34.249Zm7.7,0V30a1.382,1.382,0,1,1,2.764,0v4.254A1.382,1.382,0,1,1,13.4,34.251Zm-3.75,2.324L9.65,30a1.382,1.382,0,1,1,2.763,0l0,6.578A1.382,1.382,0,1,1,9.652,36.574Zm1.279-22.731a1.412,1.412,0,1,0-1.415-1.413A1.379,1.379,0,0,0,10.931,13.843Z"/>
</svg>
